<svg width="32" height="32" viewBox="0 0 32 32" fill="none" xmlns="http://www.w3.org/2000/svg">
<rect width="32" height="32" rx="4" fill="#E5E7EB"/>
<g clip-path="url(#clip0_140_996)">
<path d="M14.5482 9.492C14.035 10.606 13.8755 11.8506 14.0913 13.058C14.3071 14.2655 14.8878 15.3778 15.7551 16.2451C16.6224 17.1124 17.7347 17.6931 18.9421 17.9089C20.1496 18.1246 21.3941 17.9652 22.5082 17.452C21.8455 20.436 19.1835 22.6667 16.0002 22.6667C12.3182 22.6667 9.3335 19.682 9.3335 16C9.3335 12.8167 11.5642 10.1547 14.5482 9.492ZM20.1095 9.52733L20.6668 9.66667V10.3333L20.1095 10.4727C19.8751 10.5313 19.661 10.6525 19.4902 10.8234C19.3193 10.9942 19.1981 11.2083 19.1395 11.4427L19.0002 12H18.3335L18.1942 11.4427C18.1355 11.2083 18.0143 10.9942 17.8435 10.8234C17.6726 10.6525 17.4586 10.5313 17.2242 10.4727L16.6668 10.3333V9.66667L17.2242 9.52733C17.4584 9.46861 17.6724 9.34734 17.8431 9.1765C18.0138 9.00566 18.1349 8.79165 18.1935 8.55733L18.3335 8H19.0002L19.1395 8.55733C19.1981 8.79173 19.3193 9.0058 19.4902 9.17665C19.661 9.3475 19.8751 9.46871 20.1095 9.52733ZM23.4428 12.8607L24.0002 13V13.6667L23.4428 13.806C23.2084 13.8646 22.9944 13.9858 22.8235 14.1567C22.6527 14.3275 22.5315 14.5416 22.4728 14.776L22.3335 15.3333H21.6668L21.5275 14.776C21.4689 14.5416 21.3477 14.3275 21.1768 14.1567C21.006 13.9858 20.7919 13.8646 20.5575 13.806L20.0002 13.6667V13L20.5575 12.8607C20.7919 12.802 21.006 12.6808 21.1768 12.51C21.3477 12.3391 21.4689 12.1251 21.5275 11.8907L21.6668 11.3333H22.3335L22.4728 11.8907C22.5315 12.1251 22.6527 12.3391 22.8235 12.51C22.9944 12.6808 23.2084 12.802 23.4428 12.8607Z" fill="#03053D"/>
</g>
<defs>
<clipPath id="clip0_140_996">
<rect width="16" height="16" fill="white" transform="translate(8 8)"/>
</clipPath>
</defs>
</svg>
